<svg xmlns="http://www.w3.org/2000/svg" viewBox="0 0 975 502">
  <g fill="#006F36" fill-rule="evenodd" opacity=".6">
    <path d="M91.7 499.8l20.6 2.2s315.4-2 343.2-2c-117-85.5-283.3-206.6-295-212-16.2-7-33-10.8-50.3-10.8-62 0-110.2 49-110.2 111.5 0 64 45.5 102 91.7 111M313.3 89.4c-50-36.4-118-25.3-154.8 25.3-16 21.7-22.5 44.3-22.5 65.8 0 30 12.8 57.8 31.4 78l15.3 13.7L461 472.6C417.3 334.8 354 139 347.5 128c-8.6-15.7-20-28.6-34-38.6M377.4 114c0 4.4.2 8.8.7 13.2l4.4 20 105 326.6c46.5-137 111.7-332 113.2-345 .6-4.8.7-10 .7-15 0-12.2-1.7-24.4-5.4-36.3C577 18.5 515.7-12.8 456.2 6c-55.6 17.6-79 64.4-79 108zM864.4 277.2c-17 0-34 3.7-51.4 11.4-10.6 4.8-177 126-293.8 211.3 27.7 0 343.3 2 343.3 2s20.4-2.2 21.2-2.4c45.4-9 91-47 91-111 0-62.5-48.5-111.4-110.3-111.4M838.6 180.6c0-21.6-6.6-44.2-22.5-66C779.4 64.2 711.5 53 661.4 89.5c-13.7 10-25.4 23-34.8 39.3-6.3 11.5-80 240.4-113.2 344L792 272s15.2-13.7 15.7-14.4c18.3-19.7 31-47.3 31-77.2"/>
  </g>
</svg>
