<svg xmlns="http://www.w3.org/2000/svg" viewBox="0 0 295 80">
  <path fill="#fff" d="M0 53h295v-4.4H0V53zm6.4 22.5L2.6 64H0l5.5 15.8h2L12.8 64h-2.7l-4 11.5zm8.8 4.3h2.5V64h-2.5v15.8zm7 0h10.4v-2.2h-8V73h6.8v-2.2h-6.8v-4.6h8v-2H22v15.6zM46 75l-7.6-11H36v15.8h2.6V68.6l7.6 11h2.3V64H46v11zm16.8 0l-7.6-11H53v15.8h2.4V68.6L63 79.8h2.3V64h-2.5v11zm11-11l-6 15.8h2.7l1-3.2H78l1 3.2H82l-6-15.8h-2zm-1.5 10.5l2.6-7 2.4 7h-5zM90 79.8h2.4V64H90v15.8zm16.6-4.7L99 64h-2.3v15.8h2.5V68.6l7.6 11h2.3V64h-2.4v11zm12.8-4.2l-2-.3c-.7 0-1.3-.4-1.8-.7-.4-.4-.6-1-.6-1.5 0-1.4 1-2.5 3-2.5 1.4 0 2.6.3 3.6 1.2l1.6-1.5c-1.4-1.3-3-1.8-5-1.8-3.5 0-5.6 2-5.6 4.6 0 1.3.4 2.3 1.2 3 .7.6 1.8 1 3 1.3l2 .3c1 0 1.4.2 1.8.6.4.4.6 1 .6 1.6 0 1.5-1.2 2.4-3.4 2.4-1.7 0-3-.4-4.2-1.5l-1.7 1.7c1.5 1.5 3.2 2 5.7 2 3.5 0 6-1.6 6-4.5 0-1.4-.5-2.5-1.4-3.2-.5-.6-1.4-1-3-1.2zm17 3.5c0 2-1.5 3.4-3.5 3.4-2.2 0-3.5-1.3-3.5-3.4V64H127v10.5c0 3.3 2.5 5.5 6 5.5 3.3 0 5.8-2.2 5.8-5.5V64h-2.5v10.3zm18-5.7c0-2.7-2-4.6-5-4.6H143v15.8h2.5V73h3l3.6 6.8h3l-3.8-7c1.8-.5 3.3-2 3.3-4.2zm-9 2.5v-4.8h3.7c1.8 0 3 1 3 2.5 0 1.6-1.2 2.5-3 2.5h-3.6zm17-7l-6 15.8h2.6l1-3.2h6.6l1 3.2h2.8l-6-15.8h-2zm-1.6 10.5l2.6-7 2.5 7h-5.2zm21.8.6L175 64h-2.3v15.8h2.5V68.6l7.6 11h2.3V64h-2.4v11zm12.2-9c1.4 0 2 .5 3 1.3l1.6-1.6c-1.2-1.2-2.5-2-4.6-2-1.7 0-3.2.7-4.3 1.8C189 67 189 68.8 189 72c0 3 0 4.7 1.5 6.2 1 1 2.6 1.7 4.3 1.7 2 0 3.4-.8 4.6-2l-1.7-1.6c-1 .8-1.6 1.3-3 1.3-1 0-1.8-.4-2.3-1-.8-.8-1-1.8-1-5 0-3 .2-4 1-4.8.6-.7 1.5-1 2.4-1zm8 13.8h10.6v-2.2h-8V73h7v-2.2h-7v-4.6h8v-2H203v15.6zm25-6.5h3.5v1c0 1-.2 1.8-.8 2.4-.6.7-1.5 1-2.6 1-1 0-2-.3-2.6-1-.8-.7-1-1.7-1-4.8 0-3.3.2-4.2 1-5 .6-.6 1.5-1 2.5-1 1.4 0 2 .6 3.2 1.5L233 66c-1.6-1.5-2.8-2.2-5-2.2-2 0-3.3.6-4.4 1.7C222 67 222 68.8 222 72c0 3 0 4.7 1.6 6.2 1 1 2.6 1.7 4.3 1.7 1.7 0 3.2-.8 4.4-2 1-1 1.5-2.3 1.5-4.4v-2.4h-6v2zm21-4.7c0-2.7-2-4.6-5-4.6h-6.4v15.8h2.5V73h3l3.5 6.8h3l-4-7c2-.5 3.4-2 3.4-4.2zm-9 2.5v-4.8h3.8c1.7 0 2.8 1 2.8 2.5 0 1.6-1 2.5-2.8 2.5H240zM258 64c-1.8 0-3.2.6-4.3 1.7C252 67 252 68.8 252 72c0 3 0 4.7 1.7 6.2 1 1 2.6 1.7 4.3 1.7 1.8 0 3.2-.7 4.3-1.8C264 76.6 264 75 264 72s0-5-1.7-6.5c-1-1-2.5-1.7-4.3-1.7zm2.5 13c-.6.6-1.5 1-2.5 1s-2-.4-2.5-1c-.8-1-1-1.7-1-5 0-3 .2-4 1-4.8.6-.6 1.5-1 2.5-1s2 .4 2.5 1c.8.8 1 1.7 1 5 0 3-.2 4-1 4.8zm16.3-2.5c0 2-1.4 3.4-3.4 3.4s-3.4-1.3-3.4-3.4V64h-2.5v10.5c0 3.3 2.5 5.5 6 5.5 3.3 0 5.8-2.2 5.8-5.5V64h-2.5v10.3zM289.6 64h-6.3v15.8h2.5v-6.2h3.7c3.2 0 5.3-2 5.3-4.8s-2-4.8-5.2-4.8zm0 7.4h-3.7V66h3.5c1.7 0 3 1 3 2.7 0 1.7-1.3 2.7-3 2.7zm-149.2-54l18 20.5h4V10H158v21c-.7-1-18.3-21-18.3-21h-3.5v28h4.2V17.3zm33.2 8c2.7 1.7 5.2 3.2 5.2 5.7 0 1.3-1.2 3.3-4.3 3.3-2.7 0-5-1.3-7-4l-.5-.5v5.8c2.5 2 5 2.7 8 2.7 4.6 0 8-3.2 8-7.7 0-5-4-7.2-7.2-9-2.5-1.5-4.7-2.8-4.7-5 0-1.7 1.8-3 4.2-3 2.2 0 4.4 1 6.3 3l.4.3v-5.3h-.2c-2-1.4-4-2-6.3-2-5.3 0-8.7 3-8.7 7.5 0 4.2 3.7 6.4 6.8 8.3zm18.7 4.5h11.5l3.7 8h4.6l-12.5-28h-3l-12.2 28h4.6c-.2 0 3-7.8 3.3-8zm5.5-13.2l4 9H194l3.8-9zM43.3 38.3c10 0 15.2-7.2 15.2-14.3 0-8.3-6.4-14.3-15-14.3-8.7 0-15.2 6.2-15.2 14.3 0 7 5.2 14.3 15 14.3zm0-24.4C49.6 14 54 18 54 24c0 6-4.5 10.3-10.6 10.3C37.4 34.3 33 30 33 24c-.2-6 4.3-10 10.4-10zm88.8 20h-12v-8h11.3v-4H120v-8h11.7v-4h-16.2v28H132v-4zM66.8 17L75 27.2h.8L84 17v21h4.5V10h-4l-9.2 11.2-9-11H62V38h4.6V17zM15.4 38.3c4.8 0 7.8-1.2 10-2.4l.2-.2v-5l-.4.4c-3 2-6.4 3-9.5 3-6.4 0-11-4-11-10C4.7 18.4 9.3 14 15.5 14c3 0 6 1 9.4 2.8l.3.2v-5c-3.8-1.6-6.7-2.3-9.6-2.3C6.7 9.7.3 16 .3 24.4c0 5.4 4 14 15 14zM98.7 26h4c6 0 9.5-3 9.5-7.8 0-4-2.4-8-9-8h-9V38h4.5V26zm0-12h4.4c4 0 4.6 2.8 4.6 4 0 2.5-1.7 4-4.6 4h-4.3v-8zM228 38l1.7.2s24 0 26-.2c-9-6.5-21.5-15.6-22.3-16-1.2-.5-2.5-.8-3.8-.8-4.7 0-8.3 3.7-8.3 8.4 0 5 3.3 7.7 6.8 8.4zm7-17.2l21 15.2c-3.2-10.4-8-25.3-8.5-26-.7-1.3-1.5-2.3-2.6-3-4-2.8-9-2-11.8 2-1.2 1.5-1.7 3.3-1.7 5 0 2.2 1 4.3 2.4 5.8l1 1zm15.2-9.5l8 24.8c3.5-10.4 8.5-25 8.6-26V8.5c0-1 0-2-.3-2.8-1.4-4.5-6-6.8-10.6-5.4-4.3 1.3-6 5-6 8.2v1l.2 1.5zM260.5 38l26 .2 1.6-.2c3.5-.7 7-3.6 7-8.4 0-4.7-3.7-8.4-8.4-8.4-1.3 0-2.6.3-4 1-.6.2-13.2 9.4-22 15.8zm20.7-17.2l1.2-1c1.4-1.6 2.3-3.7 2.3-6 0-1.5-.5-3.3-1.7-5C280.2 5 275 4 271.3 7c-1 .8-2 1.7-2.6 3-.5 1-6 18.2-8.6 26l21.2-15.2z"/>
</svg>
