<?xml version="1.0" standalone="no"?>
<!DOCTYPE svg PUBLIC "-//W3C//DTD SVG 20010904//EN"
 "http://www.w3.org/TR/2001/REC-SVG-20010904/DTD/svg10.dtd">
<svg version="1.0" xmlns="http://www.w3.org/2000/svg"
 width="700.000000pt" height="700.000000pt" viewBox="0 0 700.000000 700.000000"
 preserveAspectRatio="xMidYMid meet">
<metadata>
Created by potrace 1.11, written by Peter Selinger 2001-2013
</metadata>
<g transform="translate(0.000000,700.000000) scale(0.100000,-0.100000)"
fill="#000000" stroke="none">
<path d="M3432 5569 c-296 -36 -546 -227 -645 -494 -37 -99 -49 -170 -50 -285
-1 -133 11 -185 104 -470 33 -102 75 -232 94 -290 48 -152 129 -405 180 -560
24 -74 84 -261 133 -415 50 -154 124 -386 166 -515 42 -130 76 -242 76 -250 0
-40 33 51 205 565 103 308 189 567 192 575 39 107 335 1004 339 1025 1 6 13
48 28 94 31 98 43 176 40 252 -8 155 -28 238 -89 359 -143 283 -452 447 -773
409z"/>
<path d="M1715 5093 c-143 -24 -251 -72 -366 -164 -132 -106 -240 -277 -278
-438 -27 -115 -23 -284 9 -386 60 -190 163 -329 337 -456 32 -23 78 -57 103
-75 25 -18 180 -130 345 -248 165 -118 305 -219 310 -223 10 -9 514 -371 994
-716 74 -53 137 -95 139 -92 2 2 -4 28 -14 57 -10 29 -19 55 -19 58 -3 13
-127 398 -134 415 -5 11 -28 81 -51 155 -23 74 -55 173 -70 220 -15 47 -65
200 -110 340 -119 371 -338 1023 -369 1100 -35 86 -80 150 -160 231 -184 183
-422 263 -666 222z"/>
<path d="M5075 5098 c-171 -20 -322 -95 -456 -228 -126 -125 -152 -176 -275
-555 -31 -93 -62 -186 -69 -205 -17 -45 -185 -560 -340 -1045 -37 -115 -80
-248 -96 -295 -15 -47 -45 -137 -65 -200 -20 -63 -49 -154 -64 -203 l-28 -87
41 31 c23 16 139 100 257 185 118 85 251 180 295 212 44 32 246 177 449 322
202 146 403 290 445 320 42 30 87 63 101 72 36 24 243 175 255 185 6 5 27 21
48 35 70 47 178 151 222 212 102 145 146 274 150 446 4 170 -35 307 -128 445
-172 255 -449 386 -742 353z"/>
<path d="M828 3645 c-2 -2 -30 -5 -63 -9 -239 -25 -466 -186 -583 -412 -54
-106 -74 -193 -78 -339 -3 -111 0 -143 20 -220 38 -146 86 -234 186 -338 98
-104 213 -174 355 -215 131 -39 38 -38 1634 -28 531 4 966 8 968 9 1 2 -245
183 -548 402 -302 220 -607 442 -677 493 -70 51 -143 104 -162 118 -84 60
-222 158 -300 215 -299 216 -363 255 -475 287 -80 24 -264 48 -277 37z"/>
<path d="M6108 3645 c-2 -2 -37 -6 -78 -9 -95 -9 -231 -54 -306 -102 -52 -33
-288 -200 -469 -331 -33 -23 -170 -123 -305 -220 -135 -98 -257 -186 -270
-195 -38 -26 -764 -556 -776 -566 -5 -5 -37 -28 -70 -50 -32 -23 -70 -51 -84
-62 l-25 -20 200 0 c110 -1 439 -3 730 -5 1137 -8 1492 -8 1545 -1 188 24 380
118 489 239 20 22 41 46 48 52 26 26 82 124 106 187 37 91 54 180 56 290 9
424 -307 765 -731 791 -32 2 -59 3 -60 2z"/>
</g>
</svg>
